<svg version="1.2" xmlns="http://www.w3.org/2000/svg" viewBox="0 0 588 121" width="593" height="122">
	<style>
		.s0 { fill: #67bfe7 } 
		.s1 { fill: #ffffff } 
	</style>
	<g id="#ffffffff">
		<path class="s0" d="m485.6 17.48c5.27 0 10.45-0.02 15.68-0.05 0.06 11.73 0.05 13.44 0.05 20.72-3.15-2.53-3.78-3.11-5.91-4.83-0.02-3.3 0.02-6.61-0.05-9.91-5.78-0.04-10.01-0.04-16.81-0.01 0.44-0.31 1.61-1.25 2.25-1.77l1.2-0.98c0.56-0.49 0.91-0.83 1.6-1.42 0.83-0.77 0.76-0.61 1.99-1.75z"/>
		<path class="s1" d="m86.55 28.45c3.73-0.43 7.55-0.59 11.26 0.14-0.11 7.32 0.45 14.62 0.44 21.95 3.07-0.01 6.18 0.19 9.23-0.21 3.17-2.45 5.01-6.22 7.64-9.2 3.42-3.96 6.21-8.44 9.71-12.3 4.31-1.42 9.08-0.53 13.56-0.46-2.23 4.31-5.74 7.74-8.51 11.68-3.92 4.96-7.29 10.37-11.57 15.04-0.02 0.98-0.34 2.15 0.46 2.93 6.96 8.75 13.98 17.49 20.49 26.59-3.76 0.58-7.56 0.65-11.35 0.55-1.27-0.08-2.62-0.56-3.39-1.62-5.94-7.32-11.46-14.97-17.58-22.14-2.91-0.04-5.82 0.01-8.72-0.02-0.78 7.28-0.19 14.61-0.11 21.9-0.18 0.36-0.54 1.09-0.71 1.46-3.6 0.27-7.22 0.11-10.82-0.01-0.18-18.76-0.09-37.52-0.03-56.28z"/>
		<path class="s1" d="m188.84 27.42c3.84-0.16 7.69-0.13 11.53-0.08 0 4.43-0.03 8.85 0.02 13.27 6.88 0.19 13.77-0.08 20.65 0.13 1.34 0.53 2.76 0.79 4.17 1.06 4.29 1.73 6.61 5.78 8.06 9.95 0.05 6.42 0.16 12.84 0.08 19.26 0.33 5.16-2.8 10.4-7.49 12.59-6.33 2.62-13.26 1.24-19.9 1.66-4.24 0.43-8.26-1.21-12.02-2.97-2.95-2.63-5.16-6.21-5-10.28-0.23-14.86-0.05-29.73-0.1-44.59zm11.46 24.13c0.05 6.91-0.04 13.82 0.06 20.73q1.05 1.05 2.11 2.11c5.59 0.01 11.18-0.09 16.78-0.03q1.16-0.89 2.34-1.76c1.09-4.12 0.41-8.4 0.64-12.61 0.14-2.39 0-4.77-0.68-7.07-0.53-0.34-1.59-1.03-2.13-1.38q-9.56 0.05-19.12 0.01z"/>
		<path class="s1" d="m439.32 28.64q6.86-0.13 13.71-0.03c4.26 6.38 8.79 12.59 12.99 19.01 0.44 0.03 1.3 0.07 1.74 0.09 4.66-6.38 9.09-12.95 14.09-19.08 2.79-0.03 5.59-0.14 8.4-0.12 0.05 1.98 0.06 2.58 0.11 5.41-5.46 7.24-10.71 14.41-15.6 22.05l-0.06 1.11c6.62 9.15 13.39 18.18 20.1 27.27-4.34 0.2-8.68 0.11-13.01 0.1-4.58-6.5-9.44-12.8-14.06-19.27-0.39 0.03-1.17 0.08-1.55 0.11-4.89 6.18-9.21 12.79-13.95 19.08-4.43 0.57-8.87 0.18-13.31 0.02 6.36-9.54 14.02-18.13 20.74-27.42l-0.07-0.98c-6.69-9.17-13.54-18.22-20.27-27.35z"/>
		<path class="s1" d="m327.19 49.03c-0.17-6.79-1-13.64 0.02-20.4 11.56 0.01 23.13 0.09 34.7 0.04 3.23-0.18 6.31 0.85 9.28 2.01 5.17 3.79 5.4 10.66 5.04 16.48-0.76 3.06-1.85 6.27-4.83 7.83-0.03 0.27-0.08 0.8-0.11 1.07 3.14 1.55 5.01 4.53 6.06 7.77-0.01 5.41 1.18 11.54-2.41 16.16-3.31 3.46-8.35 4.6-12.99 4.53-11.6 0.02-23.19 0.01-34.79 0.05 0.02-11.85-0.03-23.7 0.03-35.54zm11.13 2.13c6.9 0.19 13.78-0.7 20.69-0.37 2.08 0.02 5.68 0.26 5.73-2.69 0.13-3.24 1.02-7.26-2.02-9.47-8.15 0.11-16.3 0-24.45 0.08-0.07 4.15-0.14 8.3 0.05 12.45zm-0.56 10.18c0.06 4.35 0.04 8.7 0.01 13.06 8.89 0.1 17.77 0.05 26.66 0.05 2.68-2.83 1.95-6.89 1.64-10.42-0.47-1.34-1.4-2.94-3.07-2.71-8.41-0.11-16.83-0.21-25.24 0.02z"/>
		<path class="s1" d="m393.42 29.56c4.74-1.45 9.75-0.82 14.63-0.96 5.96 0.07 11.97-0.43 17.9 0.37 6.2 0.8 11.02 6.83 10.78 13.01 0.07 9.7 0 19.4 0.02 29.1 0.34 5.59-3.53 11.1-8.93 12.62-7.72 2.35-15.83 0.24-23.71 1.05-4.62 0.09-9.55-0.14-13.65-2.51-3.76-2.37-5.99-6.84-5.83-11.25-0.04-9.97-0.25-19.95 0.04-29.92 0-5.23 3.78-10.04 8.75-11.51zm2.17 13.42c0.04 9.03-0.1 18.08 0.07 27.11-0.25 2 1.59 3.09 2.82 4.29 7.96-0.11 15.93-0.08 23.89-0.02 1.39-1.19 3.51-2.21 3.25-4.38 0.03-9.46 0.11-18.92-0.06-28.38q-1.55-1.56-3.28-2.92c-7.85 0.01-15.69 0.09-23.54-0.03-1.34 1.16-3.26 2.3-3.15 4.33z"/>
		<path class="s1" d="m174.98 40.8c3.46-0.25 6.96-0.29 10.43-0.08 0.87 2.17-0.95 4.22-1.59 6.23-5.59 13.91-11.08 27.86-16.24 41.94-1.61 4.45-4 9.21-8.7 11.02-4.4 2.04-9.48 1.4-14.14 0.81q-0.03-4.66 0.05-9.33c2.52-0.22 5.04-0.09 7.56-0.22 2.63-0.51 3.98-2.95 5.07-5.13-4.04-7.65-6.97-15.81-10.6-23.64-2.57-7.34-6.33-14.21-8.66-21.63 3.93 0.02 7.9-0.3 11.82 0.13 3.89 8.43 6.75 17.32 10.32 25.91q0.77 1.84 1.41 3.74c0.37 0.02 1.11 0.07 1.48 0.1 2.95-8.19 6.14-16.3 8.99-24.53 0.82-1.81 1.26-3.96 2.8-5.32z"/>
		<path class="s1" d="m252.93 40.74c5.95-0.22 11.92-0.19 17.88 0.01 1.4 0.56 2.89 0.79 4.37 1.02 8.3 3.13 9.28 13.19 8.2 20.77-0.77 2.63-3.05 4.32-5.17 5.84-9.34 0.09-18.67 0.05-28.01-0.04-0.09 2.31 0.01 4.74 2.24 6.04 9.69-0.13 19.38 0.03 29.08 0.04 0.91 3.07 0.7 6.28 0.79 9.44-2.44 1.68-5.55 0.82-8.31 1.01-9.89-0.76-20.67 2.51-29.8-2.57-5.62-3.29-5.85-10.48-5.48-16.24 0.5-6.93-1.85-15.24 3.58-20.8 2.69-3.21 6.84-3.65 10.63-4.52zm-1.14 10.84q-1.13 2.14-2.07 4.37c0.23 0.43 0.7 1.3 0.94 1.74 7.22-0.16 14.45 0.24 21.67-0.2-0.23-2.02-0.51-4.08-1.4-5.93-6.38-0.07-12.76-0.1-19.14 0.02z"/>
		<path class="s1" d="m301.08 40.74c6.71-0.34 13.44-0.14 20.15-0.15q0.28 5.35 0.05 10.7c-6.23 0.29-12.47 0.04-18.7 0.17-0.49 0.47-1.48 1.4-1.98 1.87-0.25 10.33 0.13 20.66-0.1 30.99-3.62 0.76-7.36 0.64-11.02 0.25 0.04-11.53-0.31-23.08 0.23-34.61 1.5-3.7 4.25-6.72 8.01-8.18q1.71-0.44 3.36-1.04z"/>
	</g>
	<g id="#67bfe7ff">
		<path class="s0" d="m87 109q48.5 0 97 0 0 4 0 8-48.5 0-97 0 0-4 0-8z"/>
	</g>
</svg>